<svg width="1858" height="647" viewBox="0 0 1858 647" fill="none" xmlns="http://www.w3.org/2000/svg">
<path d="M574.5 185.812L506.438 146.094M574.5 185.812V253.875M574.5 185.812L506.438 225.531M30 185.812L98.0625 146.094M30 185.812L98.0625 225.531M30 185.812V253.875M302.25 616.875L370.312 577.157M302.25 616.875V548.812M302.25 616.875L234.188 577.157M234.188 66.688L302.25 27L370.312 66.7183M574.5 390V458.062L506.438 497.781M98.0625 497.781L30 458.062V390" stroke="#00DC82" stroke-width="50" stroke-linecap="round" stroke-linejoin="round"/>
<circle cx="301.75" cy="321.438" r="132.5" stroke="#00DC82" stroke-width="50"/>
<path d="M302.25 364.438C313.522 364.438 324.332 359.96 332.302 351.99C340.272 344.019 344.75 333.209 344.75 321.938C344.75 310.666 340.272 299.856 332.302 291.885C324.332 283.915 313.522 279.438 302.25 279.438C290.978 279.438 280.168 283.915 272.198 291.885C264.228 299.856 259.75 310.666 259.75 321.938C259.75 333.209 264.228 344.019 272.198 351.99C280.168 359.96 290.978 364.438 302.25 364.438Z" fill="#00DC82"/>
<path d="M923 581C913 581 905.333 578.333 900 573C894.667 567.667 892 559.833 892 549.5V437H897.5C892.167 453.333 881.833 466.667 866.5 477C851.5 487 833.833 492 813.5 492C792.167 492 773.333 486.833 757 476.5C741 466.167 728.5 451.5 719.5 432.5C710.5 413.167 706 390.5 706 364.5C706 338.167 710.5 315.667 719.5 297C728.5 278 741 263.333 757 253C773.333 242.667 792.167 237.5 813.5 237.5C834.167 237.5 852.167 242.667 867.5 253C882.833 263.333 893 277 898 294L892.5 309V270C892.5 259.667 895.167 251.833 900.5 246.5C905.833 241.167 913.5 238.5 923.5 238.5C933.5 238.5 941.167 241.167 946.5 246.5C951.833 251.833 954.5 259.667 954.5 270V549.5C954.5 559.833 951.667 567.667 946 573C940.667 578.333 933 581 923 581ZM831 444.5C843.333 444.5 854.167 441.5 863.5 435.5C872.833 429.5 880 420.667 885 409C890.333 397 893 382.167 893 364.5C893 337.833 887.333 318 876 305C864.667 291.667 849.667 285 831 285C818.667 285 807.833 288 798.5 294C789.167 299.667 781.833 308.5 776.5 320.5C771.5 332.167 769 346.833 769 364.5C769 390.833 774.667 410.833 786 424.5C797.333 437.833 812.333 444.5 831 444.5ZM1051.3 491C1040.97 491 1032.97 488.333 1027.3 483C1021.97 477.333 1019.3 469.333 1019.3 459V270C1019.3 259.667 1021.97 251.833 1027.3 246.5C1032.64 241.167 1040.14 238.5 1049.8 238.5C1059.47 238.5 1066.97 241.167 1072.3 246.5C1077.64 251.833 1080.3 259.667 1080.3 270V301.5H1075.3C1079.97 281.5 1089.14 266.333 1102.8 256C1116.47 245.667 1134.64 239.5 1157.3 237.5C1164.3 236.833 1169.8 238.667 1173.8 243C1178.14 247 1180.64 253.333 1181.3 262C1181.97 270.333 1179.97 277.167 1175.3 282.5C1170.97 287.5 1164.3 290.5 1155.3 291.5L1144.3 292.5C1123.97 294.5 1108.64 300.833 1098.3 311.5C1087.97 321.833 1082.8 336.5 1082.8 355.5V459C1082.8 469.333 1080.14 477.333 1074.8 483C1069.47 488.333 1061.64 491 1051.3 491ZM1293.16 492C1275.5 492 1259.66 488.667 1245.66 482C1232 475 1221.16 465.667 1213.16 454C1205.5 442.333 1201.66 429.167 1201.66 414.5C1201.66 396.5 1206.33 382.333 1215.66 372C1225 361.333 1240.16 353.667 1261.16 349C1282.16 344.333 1310.33 342 1345.66 342H1370.66V378H1346.16C1325.5 378 1309 379 1296.66 381C1284.33 383 1275.5 386.5 1270.16 391.5C1265.16 396.167 1262.66 402.833 1262.66 411.5C1262.66 422.5 1266.5 431.5 1274.16 438.5C1281.83 445.5 1292.5 449 1306.16 449C1317.16 449 1326.83 446.5 1335.16 441.5C1343.83 436.167 1350.66 429 1355.66 420C1360.66 411 1363.16 400.667 1363.16 389V331.5C1363.16 314.833 1359.5 302.833 1352.16 295.5C1344.83 288.167 1332.5 284.5 1315.16 284.5C1305.5 284.5 1295 285.667 1283.66 288C1272.66 290.333 1261 294.333 1248.66 300C1242.33 303 1236.66 303.833 1231.66 302.5C1227 301.167 1223.33 298.5 1220.66 294.5C1218 290.167 1216.66 285.5 1216.66 280.5C1216.66 275.5 1218 270.667 1220.66 266C1223.33 261 1227.83 257.333 1234.16 255C1249.5 248.667 1264.16 244.167 1278.16 241.5C1292.5 238.833 1305.5 237.5 1317.16 237.5C1341.16 237.5 1360.83 241.167 1376.16 248.5C1391.83 255.833 1403.5 267 1411.16 282C1418.83 296.667 1422.66 315.667 1422.66 339V459C1422.66 469.333 1420.16 477.333 1415.16 483C1410.16 488.333 1403 491 1393.66 491C1384.33 491 1377 488.333 1371.66 483C1366.66 477.333 1364.16 469.333 1364.16 459V435H1368.16C1365.83 446.667 1361.16 456.833 1354.16 465.5C1347.5 473.833 1339 480.333 1328.66 485C1318.33 489.667 1306.5 492 1293.16 492ZM1534.1 491C1524.1 491 1516.27 488.333 1510.6 483C1505.27 477.333 1502.6 469.333 1502.6 459V289.5H1479.6C1471.6 289.5 1465.43 287.5 1461.1 283.5C1456.77 279.167 1454.6 273.333 1454.6 266C1454.6 258.333 1456.77 252.5 1461.1 248.5C1465.43 244.5 1471.6 242.5 1479.6 242.5H1520.6L1502.6 259V242C1502.6 207.667 1511.27 182 1528.6 165C1545.93 147.667 1570.93 137.5 1603.6 134.5L1620.6 133C1627.27 132.333 1632.6 133.5 1636.6 136.5C1640.6 139.167 1643.27 142.833 1644.6 147.5C1645.93 151.833 1646.1 156.333 1645.1 161C1644.1 165.667 1641.93 169.833 1638.6 173.5C1635.6 176.833 1631.6 178.667 1626.6 179L1619.6 179.5C1600.6 180.833 1586.77 185.667 1578.1 194C1569.43 202.333 1565.1 215 1565.1 232V250.5L1557.1 242.5H1607.6C1615.6 242.5 1621.77 244.5 1626.1 248.5C1630.43 252.5 1632.6 258.333 1632.6 266C1632.6 273.333 1630.43 279.167 1626.1 283.5C1621.77 287.5 1615.6 289.5 1607.6 289.5H1565.1V459C1565.1 480.333 1554.77 491 1534.1 491ZM1791.56 492C1769.89 492 1751.73 488.333 1737.06 481C1722.73 473.667 1712.06 463 1705.06 449C1698.06 434.667 1694.56 417 1694.56 396V289.5H1668.56C1660.56 289.5 1654.39 287.5 1650.06 283.5C1645.73 279.167 1643.56 273.333 1643.56 266C1643.56 258.333 1645.73 252.5 1650.06 248.5C1654.39 244.5 1660.56 242.5 1668.56 242.5H1694.56V197C1694.56 186.667 1697.23 178.833 1702.56 173.5C1708.23 168.167 1716.06 165.5 1726.06 165.5C1736.06 165.5 1743.73 168.167 1749.06 173.5C1754.39 178.833 1757.06 186.667 1757.06 197V242.5H1810.06C1818.06 242.5 1824.23 244.5 1828.56 248.5C1832.89 252.5 1835.06 258.333 1835.06 266C1835.06 273.333 1832.89 279.167 1828.56 283.5C1824.23 287.5 1818.06 289.5 1810.06 289.5H1757.06V392.5C1757.06 408.5 1760.56 420.5 1767.56 428.5C1774.56 436.5 1785.89 440.5 1801.56 440.5C1807.23 440.5 1812.23 440 1816.56 439C1820.89 438 1824.73 437.333 1828.06 437C1832.06 436.667 1835.39 438 1838.06 441C1840.73 443.667 1842.06 449.333 1842.06 458C1842.06 464.667 1840.89 470.667 1838.56 476C1836.56 481 1832.73 484.5 1827.06 486.5C1822.73 487.833 1817.06 489 1810.06 490C1803.06 491.333 1796.89 492 1791.56 492Z" fill="#00DC82"/>
</svg>
