<svg width="619" height="650" viewBox="0 0 619 650" fill="none" xmlns="http://www.w3.org/2000/svg">
<path d="M582.5 188.812L514.438 149.094M582.5 188.812V256.875M582.5 188.812L514.438 228.531M38 188.812L106.062 149.094M38 188.812L106.062 228.531M38 188.812V256.875M310.25 619.875L378.312 580.157M310.25 619.875V551.812M310.25 619.875L242.188 580.157M242.188 69.688L310.25 30L378.312 69.7183M582.5 393V461.062L514.438 500.781M106.062 500.781L38 461.062V393" stroke="#00DC82" stroke-width="50" stroke-linecap="round" stroke-linejoin="round"/>
<circle cx="309.75" cy="324.438" r="132.5" stroke="#00DC82" stroke-width="50"/>
<path d="M310.25 367.438C321.522 367.438 332.332 362.96 340.302 354.99C348.272 347.019 352.75 336.209 352.75 324.938C352.75 313.666 348.272 302.856 340.302 294.885C332.332 286.915 321.522 282.438 310.25 282.438C298.978 282.438 288.168 286.915 280.198 294.885C272.228 302.856 267.75 313.666 267.75 324.938C267.75 336.209 272.228 347.019 280.198 354.99C288.168 362.96 298.978 367.438 310.25 367.438Z" fill="#00DC82"/>
</svg>
