<svg width="1137" height="449" viewBox="0 0 1137 449" fill="none" xmlns="http://www.w3.org/2000/svg">
<path d="M217 449C207 449 199.333 446.333 194 441C188.667 435.667 186 427.833 186 417.5V305H191.5C186.167 321.333 175.833 334.667 160.5 345C145.5 355 127.833 360 107.5 360C86.1667 360 67.3333 354.833 51 344.5C35 334.167 22.5 319.5 13.5 300.5C4.5 281.167 1.2517e-06 258.5 1.2517e-06 232.5C1.2517e-06 206.167 4.5 183.667 13.5 165C22.5 146 35 131.333 51 121C67.3333 110.667 86.1667 105.5 107.5 105.5C128.167 105.5 146.167 110.667 161.5 121C176.833 131.333 187 145 192 162L186.5 177V138C186.5 127.667 189.167 119.833 194.5 114.5C199.833 109.167 207.5 106.5 217.5 106.5C227.5 106.5 235.167 109.167 240.5 114.5C245.833 119.833 248.5 127.667 248.5 138V417.5C248.5 427.833 245.667 435.667 240 441C234.667 446.333 227 449 217 449ZM125 312.5C137.333 312.5 148.167 309.5 157.5 303.5C166.833 297.5 174 288.667 179 277C184.333 265 187 250.167 187 232.5C187 205.833 181.333 186 170 173C158.667 159.667 143.667 153 125 153C112.667 153 101.833 156 92.5 162C83.1667 167.667 75.8333 176.5 70.5 188.5C65.5 200.167 63 214.833 63 232.5C63 258.833 68.6667 278.833 80 292.5C91.3333 305.833 106.333 312.5 125 312.5ZM345.305 359C334.971 359 326.971 356.333 321.305 351C315.971 345.333 313.305 337.333 313.305 327V138C313.305 127.667 315.971 119.833 321.305 114.5C326.638 109.167 334.138 106.5 343.805 106.5C353.471 106.5 360.971 109.167 366.305 114.5C371.638 119.833 374.305 127.667 374.305 138V169.5H369.305C373.971 149.5 383.138 134.333 396.805 124C410.471 113.667 428.638 107.5 451.305 105.5C458.305 104.833 463.805 106.667 467.805 111C472.138 115 474.638 121.333 475.305 130C475.971 138.333 473.971 145.167 469.305 150.5C464.971 155.5 458.305 158.5 449.305 159.5L438.305 160.5C417.971 162.5 402.638 168.833 392.305 179.5C381.971 189.833 376.805 204.5 376.805 223.5V327C376.805 337.333 374.138 345.333 368.805 351C363.471 356.333 355.638 359 345.305 359ZM587.164 360C569.497 360 553.664 356.667 539.664 350C525.997 343 515.164 333.667 507.164 322C499.497 310.333 495.664 297.167 495.664 282.5C495.664 264.5 500.331 250.333 509.664 240C518.997 229.333 534.164 221.667 555.164 217C576.164 212.333 604.331 210 639.664 210H664.664V246H640.164C619.497 246 602.997 247 590.664 249C578.331 251 569.497 254.5 564.164 259.5C559.164 264.167 556.664 270.833 556.664 279.5C556.664 290.5 560.497 299.5 568.164 306.5C575.831 313.5 586.497 317 600.164 317C611.164 317 620.831 314.5 629.164 309.5C637.831 304.167 644.664 297 649.664 288C654.664 279 657.164 268.667 657.164 257V199.5C657.164 182.833 653.497 170.833 646.164 163.5C638.831 156.167 626.497 152.5 609.164 152.5C599.497 152.5 588.997 153.667 577.664 156C566.664 158.333 554.997 162.333 542.664 168C536.331 171 530.664 171.833 525.664 170.5C520.997 169.167 517.331 166.5 514.664 162.5C511.997 158.167 510.664 153.5 510.664 148.5C510.664 143.5 511.997 138.667 514.664 134C517.331 129 521.831 125.333 528.164 123C543.497 116.667 558.164 112.167 572.164 109.5C586.497 106.833 599.497 105.5 611.164 105.5C635.164 105.5 654.831 109.167 670.164 116.5C685.831 123.833 697.497 135 705.164 150C712.831 164.667 716.664 183.667 716.664 207V327C716.664 337.333 714.164 345.333 709.164 351C704.164 356.333 696.997 359 687.664 359C678.331 359 670.997 356.333 665.664 351C660.664 345.333 658.164 337.333 658.164 327V303H662.164C659.831 314.667 655.164 324.833 648.164 333.5C641.497 341.833 632.997 348.333 622.664 353C612.331 357.667 600.497 360 587.164 360ZM828.102 359C818.102 359 810.268 356.333 804.602 351C799.268 345.333 796.602 337.333 796.602 327V157.5H773.602C765.602 157.5 759.435 155.5 755.102 151.5C750.768 147.167 748.602 141.333 748.602 134C748.602 126.333 750.768 120.5 755.102 116.5C759.435 112.5 765.602 110.5 773.602 110.5H814.602L796.602 127V110C796.602 75.6666 805.268 50 822.602 33C839.935 15.6666 864.935 5.49998 897.602 2.49998L914.602 0.999998C921.268 0.33332 926.602 1.49998 930.602 4.49998C934.602 7.16665 937.268 10.8333 938.602 15.5C939.935 19.8333 940.102 24.3333 939.102 29C938.102 33.6667 935.935 37.8333 932.602 41.5C929.602 44.8333 925.602 46.6666 920.602 47L913.602 47.5C894.602 48.8333 880.768 53.6667 872.102 62C863.435 70.3333 859.102 83 859.102 100V118.5L851.102 110.5H901.602C909.602 110.5 915.768 112.5 920.102 116.5C924.435 120.5 926.602 126.333 926.602 134C926.602 141.333 924.435 147.167 920.102 151.5C915.768 155.5 909.602 157.5 901.602 157.5H859.102V327C859.102 348.333 848.768 359 828.102 359ZM1085.56 360C1063.89 360 1045.73 356.333 1031.06 349C1016.73 341.667 1006.06 331 999.059 317C992.059 302.667 988.559 285 988.559 264V157.5H962.559C954.559 157.5 948.392 155.5 944.059 151.5C939.725 147.167 937.559 141.333 937.559 134C937.559 126.333 939.725 120.5 944.059 116.5C948.392 112.5 954.559 110.5 962.559 110.5H988.559V65C988.559 54.6667 991.225 46.8333 996.559 41.5C1002.23 36.1667 1010.06 33.5 1020.06 33.5C1030.06 33.5 1037.73 36.1667 1043.06 41.5C1048.39 46.8333 1051.06 54.6667 1051.06 65V110.5H1104.06C1112.06 110.5 1118.23 112.5 1122.56 116.5C1126.89 120.5 1129.06 126.333 1129.06 134C1129.06 141.333 1126.89 147.167 1122.56 151.5C1118.23 155.5 1112.06 157.5 1104.06 157.5H1051.06V260.5C1051.06 276.5 1054.56 288.5 1061.56 296.5C1068.56 304.5 1079.89 308.5 1095.56 308.5C1101.23 308.5 1106.23 308 1110.56 307C1114.89 306 1118.73 305.333 1122.06 305C1126.06 304.667 1129.39 306 1132.06 309C1134.73 311.667 1136.06 317.333 1136.06 326C1136.06 332.667 1134.89 338.667 1132.56 344C1130.56 349 1126.73 352.5 1121.06 354.5C1116.73 355.833 1111.06 357 1104.06 358C1097.06 359.333 1090.89 360 1085.56 360Z" fill="#00DC82"/>
</svg>
